<svg width="64" height="64" viewBox="0 0 64 64" xmlns="http://www.w3.org/2000/svg">
  <circle cx="32" cy="32" r="12" fill="gold"/>
  <g fill="orange">
    <polygon points="32,4 36,16 28,16"/>
    <polygon points="32,60 36,48 28,48"/>
    <polygon points="4,32 16,36 16,28"/>
    <polygon points="60,32 48,36 48,28"/>
    <polygon points="12,12 20,20 16,24 8,16"/>
    <polygon points="52,12 44,20 48,24 56,16"/>
    <polygon points="12,52 20,44 16,40 8,48"/>
    <polygon points="52,52 44,44 48,40 56,48"/>
  </g>
</svg>
